<svg width="45" height="96" viewBox="0 0 45 96" fill="none" xmlns="http://www.w3.org/2000/svg">
<path d="M0 96L8.59953 94.9763L3.41318 88.0407L0 96ZM24.8736 74.9223L24.2895 74.4519L24.8736 74.9223ZM28.0985 59.6568L28.7229 59.2413L28.0985 59.6568ZM20.3714 59.256L21.0682 58.9785L20.3714 59.256ZM28.7371 59.256L29.087 59.9194L28.7371 59.256ZM38.5716 47.4311L39.2675 47.7108L38.5716 47.4311ZM37.6457 23.4138L36.9363 23.6575L37.6457 23.4138ZM35.3148 12.5577L34.6023 12.3232L35.3148 12.5577ZM43.9998 9.75175L43.25 9.77283L43.9998 9.75175ZM37.3902 5.84353L37.4985 5.10139L37.3902 5.84353ZM26.3104 4.80802L26.1895 5.54819L26.3104 4.80802ZM23.1407 0.810799C23.0362 0.409981 22.6266 0.169762 22.2258 0.274254C21.825 0.378746 21.5847 0.788383 21.6892 1.1892L23.1407 0.810799ZM5.85119 92.561C12.7478 87.4761 20.0213 82.1435 25.4577 75.3927L24.2895 74.4519C18.9967 81.0242 11.8911 86.2441 4.96103 91.3537L5.85119 92.561ZM25.4577 75.3927C26.8193 73.7019 28.3703 70.8473 29.2287 67.8689C30.0769 64.9262 30.3137 61.6317 28.7229 59.2413L27.4742 60.0723C28.6842 61.8906 28.6041 64.6199 27.7874 67.4534C26.981 70.2512 25.5191 72.9249 24.2895 74.4519L25.4577 75.3927ZM28.7229 59.2413C28.4998 58.9061 28.154 58.6367 27.8033 58.4226C27.44 58.2008 27.0089 58.0007 26.5498 57.8265C25.6319 57.4782 24.5393 57.2096 23.5156 57.0836C22.5205 56.9612 21.474 56.9581 20.7111 57.2385C20.3205 57.3821 19.9075 57.6363 19.6793 58.0857C19.4421 58.5527 19.4875 59.0636 19.6747 59.5335L21.0682 58.9785C20.9844 58.7679 21.0342 58.7304 21.0167 58.7649C21.0081 58.7818 21.0298 58.7195 21.2285 58.6464C21.6443 58.4936 22.3951 58.457 23.3324 58.5724C24.2412 58.6842 25.2163 58.9249 26.0177 59.229C26.4182 59.3809 26.7597 59.5429 27.0215 59.7028C27.2959 59.8703 27.4276 60.0024 27.4742 60.0723L28.7229 59.2413ZM19.6747 59.5335C20.0933 60.5845 21.0742 61.0205 22.0278 61.1697C22.9845 61.3194 24.0905 61.2169 25.096 61.0384C26.1136 60.8578 27.0877 60.588 27.8036 60.3653C28.1628 60.2535 28.46 60.1526 28.6689 60.0791C28.7734 60.0423 28.856 60.0122 28.9135 59.991C28.9422 59.9804 28.9649 59.9719 28.9811 59.9657C28.9891 59.9627 28.9959 59.9601 29.0014 59.9579C29.004 59.9569 29.0072 59.9557 29.0105 59.9544C29.0119 59.9538 29.0151 59.9526 29.0188 59.9511C29.0209 59.9502 29.0263 59.948 29.0297 59.9466C29.0365 59.9436 29.0653 59.9304 29.087 59.9194L28.3873 58.5926C28.4089 58.5816 28.4376 58.5684 28.4443 58.5655C28.4475 58.5642 28.4527 58.562 28.4545 58.5613C28.4578 58.56 28.4601 58.559 28.4606 58.5588C28.4619 58.5583 28.4624 58.5581 28.4613 58.5586C28.4595 58.5593 28.4556 58.5608 28.4495 58.5631C28.4375 58.5676 28.4187 58.5747 28.3934 58.584C28.3429 58.6027 28.2676 58.6301 28.1706 58.6642C27.9766 58.7326 27.6971 58.8275 27.3579 58.933C26.677 59.1449 25.7679 59.3957 24.8338 59.5615C23.8876 59.7295 22.9734 59.7994 22.2597 59.6878C21.5428 59.5756 21.2028 59.3164 21.0682 58.9785L19.6747 59.5335ZM29.087 59.9194C34.1557 57.2462 37.1668 52.9367 39.2675 47.7108L37.8757 47.1513C35.8561 52.1755 33.0381 56.1397 28.3873 58.5926L29.087 59.9194ZM39.2675 47.7108C42.4635 39.7604 40.9798 30.8112 38.355 23.1702L36.9363 23.6575C39.5201 31.1788 40.8702 39.7022 37.8757 47.1513L39.2675 47.7108ZM38.355 23.1702C38.0872 22.3906 37.7323 21.5193 37.3835 20.6353C37.0305 19.7406 36.6769 18.8165 36.3905 17.8888C35.8098 16.008 35.5495 14.2437 36.0272 12.7921L34.6023 12.3232C33.9723 14.2378 34.3561 16.3841 34.9572 18.3312C35.2616 19.3174 35.6333 20.2864 35.9882 21.1859C36.3473 22.096 36.6829 22.9196 36.9363 23.6575L38.355 23.1702ZM36.0272 12.7921C36.133 12.4704 36.4755 12.1668 37.2696 11.9355C38.0413 11.7107 39.0269 11.6176 40.0631 11.5509C41.0542 11.4871 42.1271 11.447 42.9238 11.3038C43.3197 11.2326 43.7384 11.1222 44.0724 10.9159C44.4411 10.6881 44.7654 10.2967 44.7495 9.73067L43.25 9.77283C43.2468 9.65794 43.3374 9.60682 43.284 9.63982C43.1957 9.69434 43.0038 9.76534 42.6584 9.82744C41.9725 9.95075 41.0402 9.98489 39.9667 10.054C38.9381 10.1202 37.7994 10.2188 36.8501 10.4954C35.9232 10.7654 34.948 11.2729 34.6023 12.3232L36.0272 12.7921ZM44.7495 9.73067C44.6955 7.81004 43.1112 6.72845 41.6524 6.12528C40.1483 5.50333 38.4315 5.23757 37.4985 5.10139L37.2819 6.58566C38.219 6.72246 39.7665 6.96863 41.0793 7.51146C42.4375 8.07306 43.223 8.8091 43.25 9.77283L44.7495 9.73067ZM37.4985 5.10139C35.6252 4.82793 33.7379 4.71714 31.8934 4.60066C30.0374 4.48346 28.221 4.36037 26.4314 4.06784L26.1895 5.54819C28.0624 5.85435 29.949 5.98087 31.7988 6.09768C33.6601 6.21522 35.4814 6.32285 37.2819 6.58566L37.4985 5.10139ZM26.4314 4.06784C24.8101 3.80283 24.2716 3.54385 23.9831 3.21571C23.8356 3.048 23.7108 2.81271 23.5779 2.41357C23.4414 2.00332 23.3214 1.50389 23.1407 0.810799L21.6892 1.1892C21.8575 1.83454 21.9974 2.4147 22.1547 2.88736C22.3158 3.37115 22.5189 3.82211 22.8566 4.20615C23.5383 4.98154 24.5986 5.28815 26.1895 5.54819L26.4314 4.06784Z" fill="#E3C648"/>
</svg>
