<svg width="509" height="239" viewBox="0 0 509 239" fill="none" xmlns="http://www.w3.org/2000/svg" className="">
<path d="M0 0L2.74275 22.9306L21.2298 9.08999L0 0ZM112.488 133.978L113.75 132.426L112.488 133.978ZM193.958 151.349L195.073 153.009L193.958 151.349ZM196.097 109.728L196.843 111.584L196.097 109.728ZM196.097 154.789L194.324 155.715L196.097 154.789ZM259.205 207.761L258.453 209.614L259.205 207.761ZM387.381 202.773L386.726 200.884L387.381 202.773ZM445.319 190.218L445.949 188.32L445.319 190.218ZM460.293 236.999L460.237 234.999L460.293 236.999ZM481.151 201.397L483.13 201.684L481.151 201.397ZM486.677 141.718L484.703 141.398L486.677 141.718ZM507.509 122.669C508.577 122.388 509.215 121.294 508.934 120.226C508.653 119.158 507.559 118.52 506.491 118.801L507.509 122.669ZM9.18086 15.6001C39.7499 56.9916 70.7127 102.601 111.227 135.53L113.75 132.426C73.7328 99.9013 43.1318 54.8378 12.3985 13.2238L9.18086 15.6001ZM111.227 135.53C120.031 142.686 135.025 150.921 150.681 155.475C166.242 160.002 183.076 161.067 195.073 153.009L192.843 149.689C182.379 156.717 167.065 156.075 151.799 151.635C136.628 147.221 122.118 139.228 113.75 132.426L111.227 135.53ZM195.073 153.009C196.507 152.046 197.76 150.473 198.84 148.688C199.94 146.87 200.956 144.67 201.856 142.278C203.654 137.493 205.05 131.769 205.703 126.412C206.347 121.132 206.31 115.9 204.986 112.267C204.316 110.427 203.219 108.732 201.442 107.822C199.615 106.885 197.515 107.002 195.351 107.872L196.843 111.584C198.31 110.994 199.137 111.135 199.618 111.382C200.15 111.654 200.741 112.3 201.228 113.635C202.216 116.35 202.358 120.8 201.733 125.928C201.116 130.981 199.794 136.394 198.111 140.87C197.27 143.108 196.355 145.069 195.418 146.618C194.46 148.2 193.571 149.2 192.843 149.689L195.073 153.009ZM195.351 107.872C190.692 109.745 188.607 114.161 187.862 118.968C187.115 123.788 187.617 129.482 188.556 134.816C189.5 140.183 190.913 145.341 192.087 149.149C192.675 151.057 193.206 152.633 193.591 153.738C193.784 154.291 193.941 154.726 194.051 155.026C194.106 155.176 194.149 155.293 194.18 155.374C194.195 155.414 194.207 155.447 194.217 155.472C194.221 155.484 194.226 155.496 194.231 155.508C194.233 155.513 194.236 155.522 194.241 155.533C194.243 155.539 194.249 155.553 194.253 155.562C194.261 155.581 194.296 155.657 194.324 155.715L197.87 153.862C197.898 153.92 197.933 153.996 197.941 154.014C197.944 154.022 197.95 154.035 197.951 154.04C197.953 154.042 197.955 154.048 197.955 154.049C197.956 154.05 197.957 154.052 197.957 154.053C197.957 154.054 197.956 154.051 197.953 154.043C197.947 154.028 197.938 154.003 197.924 153.968C197.898 153.898 197.858 153.791 197.807 153.65C197.704 153.369 197.554 152.953 197.368 152.42C196.996 151.355 196.482 149.825 195.91 147.971C194.764 144.255 193.4 139.269 192.495 134.124C191.585 128.946 191.167 123.758 191.815 119.581C192.464 115.389 194.089 112.691 196.843 111.584L195.351 107.872ZM194.324 155.715C208.294 182.448 230.829 198.407 258.453 209.614L259.957 205.908C232.877 194.921 211.257 179.482 197.87 153.862L194.324 155.715ZM258.453 209.614C300.219 226.559 347.416 218.746 388.036 204.663L386.726 200.884C346.427 214.855 300.376 222.306 259.957 205.908L258.453 209.614ZM388.036 204.663C392.141 203.24 396.728 201.354 401.48 199.461C406.261 197.557 411.253 195.629 416.282 194.062C426.407 190.907 436.328 189.34 444.688 192.116L445.949 188.32C436.344 185.13 425.395 187.032 415.092 190.243C409.906 191.859 404.794 193.836 400 195.745C395.178 197.666 390.719 199.499 386.726 200.884L388.036 204.663ZM444.688 192.116C447.375 193.009 449.272 195.708 450.56 200.173C451.83 204.572 452.335 210.091 452.69 215.662C453.038 221.114 453.244 226.7 453.981 230.839C454.348 232.902 454.884 234.847 455.78 236.311C456.731 237.865 458.229 239.058 460.35 238.998L460.237 234.999C459.95 235.008 459.632 234.942 459.191 234.222C458.695 233.412 458.263 232.068 457.919 230.138C457.234 226.291 457.043 221.077 456.682 215.407C456.328 209.857 455.809 203.933 454.404 199.063C453.016 194.258 450.584 189.859 445.949 188.32L444.688 192.116ZM460.35 238.998C469.332 238.743 474.64 231.282 477.799 223.57C481.011 215.73 482.403 206.714 483.13 201.684L479.171 201.111C478.442 206.153 477.102 214.72 474.098 222.053C471.041 229.515 466.648 234.818 460.237 234.999L460.35 238.998ZM483.13 201.684C484.575 191.693 485.162 181.618 485.785 171.66C486.41 161.671 487.072 151.791 488.651 142.037L484.703 141.398C483.088 151.372 482.417 161.438 481.793 171.41C481.167 181.412 480.589 191.313 479.171 201.111L483.13 201.684ZM488.651 142.037C490.06 133.344 491.507 129.731 493.86 127.644C495.044 126.593 496.587 125.815 498.829 125.062C501.101 124.299 503.873 123.626 507.509 122.669L506.491 118.801C502.984 119.724 499.995 120.451 497.555 121.271C495.085 122.1 492.965 123.09 491.205 124.652C487.668 127.79 486.097 132.79 484.703 141.398L488.651 142.037Z" fill="#E3C648"/>
</svg>
