<svg width="102" height="24" viewBox="0 0 102 24" fill="none" xmlns="http://www.w3.org/2000/svg">
<path d="M4.03125 13.0781C5.05208 13.2656 5.98438 13.2865 6.82812 13.1406C7.68229 12.9844 8.41146 12.6615 9.01562 12.1719C9.63021 11.6719 10.1042 11 10.4375 10.1562C10.7812 9.3125 10.9531 8.28125 10.9531 7.0625C10.9531 6.21875 10.8646 5.45312 10.6875 4.76562C10.5104 4.06771 10.2448 3.47917 9.89062 3C9.54688 2.51042 9.10938 2.13542 8.57812 1.875C8.04688 1.60417 7.42708 1.46875 6.71875 1.46875C6.27083 1.46875 5.88021 1.48958 5.54688 1.53125C5.21354 1.5625 4.93229 1.59896 4.70312 1.64062C4.43229 1.69271 4.20833 1.75 4.03125 1.8125V13.0781ZM0.734375 0.59375C0.942708 0.614583 1.16146 0.635417 1.39062 0.65625C1.58854 0.677083 1.80729 0.692708 2.04688 0.703125C2.29688 0.703125 2.55208 0.703125 2.8125 0.703125C3.21875 0.703125 3.76562 0.65625 4.45312 0.5625C5.15104 0.458333 6.03646 0.40625 7.10938 0.40625C8.10938 0.40625 9.03125 0.552083 9.875 0.84375C10.7292 1.13542 11.4688 1.5625 12.0938 2.125C12.7188 2.6875 13.2031 3.375 13.5469 4.1875C13.901 4.98958 14.0781 5.90625 14.0781 6.9375C14.0781 8.32292 13.8021 9.52083 13.25 10.5312C12.6979 11.5417 11.9583 12.3594 11.0312 12.9844C10.1042 13.6094 9.03646 14.0365 7.82812 14.2656C6.61979 14.4844 5.35417 14.4948 4.03125 14.2969V16.8906C4.03125 17.776 4.04167 18.5521 4.0625 19.2188C4.09375 19.875 4.125 20.4427 4.15625 20.9219C4.19792 21.401 4.24479 21.8021 4.29688 22.125C4.35938 22.4479 4.42188 22.7188 4.48438 22.9375V23H0.734375V22.9375C0.796875 22.7188 0.854167 22.4479 0.90625 22.125C0.96875 21.8021 1.02083 21.401 1.0625 20.9219C1.10417 20.4427 1.13542 19.875 1.15625 19.2188C1.17708 18.5521 1.1875 17.776 1.1875 16.8906V6.71875C1.1875 5.83333 1.17708 5.0625 1.15625 4.40625C1.13542 3.73958 1.10417 3.16667 1.0625 2.6875C1.02083 2.19792 0.96875 1.79167 0.90625 1.46875C0.854167 1.14583 0.796875 0.875 0.734375 0.65625V0.59375ZM25.9062 17.7188C25.625 17.7188 25.2708 17.7188 24.8438 17.7188C24.4271 17.7188 23.9688 17.7188 23.4688 17.7188C22.9688 17.7188 22.4531 17.7188 21.9219 17.7188C21.3906 17.7188 20.8854 17.724 20.4062 17.7344C19.9271 17.7344 19.4896 17.7396 19.0938 17.75C18.6979 17.75 18.3906 17.75 18.1719 17.75L17.5938 18.9688C17.3438 19.4688 17.1302 19.9062 16.9531 20.2812C16.776 20.6458 16.6302 20.9688 16.5156 21.25C16.401 21.5312 16.3177 21.776 16.2656 21.9844C16.2135 22.1823 16.1875 22.3698 16.1875 22.5469C16.1875 22.6615 16.1927 22.75 16.2031 22.8125C16.2135 22.8646 16.2292 22.9062 16.25 22.9375V23H13.5V22.9375C13.5729 22.8646 13.6875 22.7083 13.8438 22.4688C14 22.2188 14.1771 21.9167 14.375 21.5625C14.5833 21.2083 14.8021 20.8073 15.0312 20.3594C15.2708 19.9115 15.5052 19.4479 15.7344 18.9688L22.1094 5.8125H23.2812L29.5312 18.9688C29.7708 19.4688 30.0104 19.9479 30.25 20.4062C30.5 20.8646 30.7292 21.276 30.9375 21.6406C31.1458 21.9948 31.3281 22.2917 31.4844 22.5312C31.6406 22.7604 31.7448 22.8958 31.7969 22.9375V23H27.7969C27.8177 22.9167 27.8281 22.8438 27.8281 22.7812C27.8281 22.7083 27.8281 22.6302 27.8281 22.5469C27.8281 22.3177 27.776 22.0417 27.6719 21.7188C27.5781 21.3958 27.4583 21.0677 27.3125 20.7344C27.1771 20.3906 27.0312 20.0625 26.875 19.75C26.7292 19.4375 26.6094 19.1771 26.5156 18.9688L25.9062 17.7188ZM18.7812 16.5H19.7344C20.1719 16.5 20.6354 16.5 21.125 16.5C21.625 16.4896 22.125 16.4844 22.625 16.4844C23.125 16.4844 23.6094 16.4844 24.0781 16.4844C24.5469 16.474 24.9688 16.4688 25.3438 16.4688L22.1094 9.5625L18.7812 16.5ZM41.3125 9.46875H41C40.9375 9.29167 40.8333 9.06771 40.6875 8.79688C40.5521 8.52604 40.3646 8.26042 40.125 8C39.8958 7.73958 39.6094 7.52083 39.2656 7.34375C38.9219 7.15625 38.5104 7.0625 38.0312 7.0625C37.6667 7.0625 37.3385 7.125 37.0469 7.25C36.7656 7.36458 36.526 7.52604 36.3281 7.73438C36.1302 7.94271 35.9792 8.19271 35.875 8.48438C35.7708 8.76562 35.7188 9.07292 35.7188 9.40625C35.7188 9.94792 35.8802 10.4635 36.2031 10.9531C36.5365 11.4427 36.9479 11.9323 37.4375 12.4219C37.9271 12.901 38.4583 13.3854 39.0312 13.875C39.6042 14.3646 40.1354 14.875 40.625 15.4062C41.1146 15.9375 41.5208 16.5 41.8438 17.0938C42.1771 17.6875 42.3438 18.3229 42.3438 19C42.3438 19.5 42.25 20.0156 42.0625 20.5469C41.8854 21.0781 41.5938 21.5573 41.1875 21.9844C40.7812 22.4115 40.2604 22.7604 39.625 23.0312C38.9896 23.3125 38.2188 23.4531 37.3125 23.4531C36.8125 23.4531 36.3333 23.4115 35.875 23.3281C35.4271 23.2448 35.0104 23.1406 34.625 23.0156C34.25 22.901 33.9115 22.776 33.6094 22.6406C33.3177 22.4948 33.0729 22.3594 32.875 22.2344L33.1562 19.2812H33.4844C33.5885 19.6458 33.7396 20.0104 33.9375 20.375C34.1458 20.7396 34.3958 21.0729 34.6875 21.375C34.9896 21.6667 35.3385 21.9062 35.7344 22.0938C36.1406 22.2708 36.6042 22.3594 37.125 22.3594C37.4896 22.3594 37.8333 22.3021 38.1562 22.1875C38.4792 22.0625 38.7552 21.8906 38.9844 21.6719C39.224 21.4531 39.4115 21.1875 39.5469 20.875C39.6823 20.5521 39.75 20.1927 39.75 19.7969C39.75 19.3281 39.6562 18.8958 39.4688 18.5C39.2812 18.0938 39.0312 17.7083 38.7188 17.3438C38.4062 16.9688 38.0521 16.6094 37.6562 16.2656C37.2708 15.9219 36.8698 15.5729 36.4531 15.2188C36.0365 14.8646 35.6302 14.5052 35.2344 14.1406C34.849 13.7656 34.5 13.3646 34.1875 12.9375C33.875 12.5104 33.625 12.0573 33.4375 11.5781C33.25 11.0885 33.1562 10.5521 33.1562 9.96875C33.1562 9.35417 33.2865 8.80208 33.5469 8.3125C33.8073 7.82292 34.151 7.41146 34.5781 7.07812C35.0052 6.73438 35.4948 6.47396 36.0469 6.29688C36.599 6.10938 37.1719 6.01562 37.7656 6.01562C38.2031 6.01562 38.6094 6.04688 38.9844 6.10938C39.3698 6.17188 39.7135 6.25 40.0156 6.34375C40.3281 6.42708 40.599 6.51562 40.8281 6.60938C41.0573 6.69271 41.2448 6.76042 41.3906 6.8125L41.3125 9.46875ZM53.2188 9.46875H52.9062C52.8438 9.29167 52.7396 9.06771 52.5938 8.79688C52.4583 8.52604 52.2708 8.26042 52.0312 8C51.8021 7.73958 51.5156 7.52083 51.1719 7.34375C50.8281 7.15625 50.4167 7.0625 49.9375 7.0625C49.5729 7.0625 49.2448 7.125 48.9531 7.25C48.6719 7.36458 48.4323 7.52604 48.2344 7.73438C48.0365 7.94271 47.8854 8.19271 47.7812 8.48438C47.6771 8.76562 47.625 9.07292 47.625 9.40625C47.625 9.94792 47.7865 10.4635 48.1094 10.9531C48.4427 11.4427 48.8542 11.9323 49.3438 12.4219C49.8333 12.901 50.3646 13.3854 50.9375 13.875C51.5104 14.3646 52.0417 14.875 52.5312 15.4062C53.0208 15.9375 53.4271 16.5 53.75 17.0938C54.0833 17.6875 54.25 18.3229 54.25 19C54.25 19.5 54.1562 20.0156 53.9688 20.5469C53.7917 21.0781 53.5 21.5573 53.0938 21.9844C52.6875 22.4115 52.1667 22.7604 51.5312 23.0312C50.8958 23.3125 50.125 23.4531 49.2188 23.4531C48.7188 23.4531 48.2396 23.4115 47.7812 23.3281C47.3333 23.2448 46.9167 23.1406 46.5312 23.0156C46.1562 22.901 45.8177 22.776 45.5156 22.6406C45.224 22.4948 44.9792 22.3594 44.7812 22.2344L45.0625 19.2812H45.3906C45.4948 19.6458 45.6458 20.0104 45.8438 20.375C46.0521 20.7396 46.3021 21.0729 46.5938 21.375C46.8958 21.6667 47.2448 21.9062 47.6406 22.0938C48.0469 22.2708 48.5104 22.3594 49.0312 22.3594C49.3958 22.3594 49.7396 22.3021 50.0625 22.1875C50.3854 22.0625 50.6615 21.8906 50.8906 21.6719C51.1302 21.4531 51.3177 21.1875 51.4531 20.875C51.5885 20.5521 51.6562 20.1927 51.6562 19.7969C51.6562 19.3281 51.5625 18.8958 51.375 18.5C51.1875 18.0938 50.9375 17.7083 50.625 17.3438C50.3125 16.9688 49.9583 16.6094 49.5625 16.2656C49.1771 15.9219 48.776 15.5729 48.3594 15.2188C47.9427 14.8646 47.5365 14.5052 47.1406 14.1406C46.7552 13.7656 46.4062 13.3646 46.0938 12.9375C45.7812 12.5104 45.5312 12.0573 45.3438 11.5781C45.1562 11.0885 45.0625 10.5521 45.0625 9.96875C45.0625 9.35417 45.1927 8.80208 45.4531 8.3125C45.7135 7.82292 46.0573 7.41146 46.4844 7.07812C46.9115 6.73438 47.401 6.47396 47.9531 6.29688C48.5052 6.10938 49.0781 6.01562 49.6719 6.01562C50.1094 6.01562 50.5156 6.04688 50.8906 6.10938C51.276 6.17188 51.6198 6.25 51.9219 6.34375C52.2344 6.42708 52.5052 6.51562 52.7344 6.60938C52.9635 6.69271 53.151 6.76042 53.2969 6.8125L53.2188 9.46875ZM58.0938 12.625C58.0938 11.6875 58.0833 10.875 58.0625 10.1875C58.0417 9.48958 58.0104 8.89062 57.9688 8.39062C57.9375 7.88021 57.8906 7.45312 57.8281 7.10938C57.776 6.76562 57.7135 6.48438 57.6406 6.26562V6.20312H61.2656V6.26562C61.1927 6.48438 61.125 6.76562 61.0625 7.10938C61.0104 7.45312 60.9635 7.88021 60.9219 8.39062C60.8906 8.89062 60.8646 9.48958 60.8438 10.1875C60.8229 10.875 60.8125 11.6875 60.8125 12.625V16.5625C60.8125 17.5 60.8229 18.3177 60.8438 19.0156C60.8646 19.7135 60.8906 20.3177 60.9219 20.8281C60.9635 21.3281 61.0104 21.75 61.0625 22.0938C61.125 22.4375 61.1927 22.7188 61.2656 22.9375V23H57.6406V22.9375C57.7135 22.7188 57.776 22.4375 57.8281 22.0938C57.8906 21.75 57.9375 21.3281 57.9688 20.8281C58.0104 20.3177 58.0417 19.7135 58.0625 19.0156C58.0833 18.3177 58.0938 17.5 58.0938 16.5625V12.625ZM64.7188 14.5469C64.7188 13.3177 64.9479 12.1771 65.4062 11.125C65.875 10.0729 66.5104 9.16146 67.3125 8.39062C68.1146 7.60938 69.0625 7 70.1562 6.5625C71.25 6.125 72.4219 5.90625 73.6719 5.90625C74.901 5.90625 76.0573 6.11458 77.1406 6.53125C78.2344 6.9375 79.1823 7.52083 79.9844 8.28125C80.7969 9.04167 81.4375 9.96354 81.9062 11.0469C82.375 12.1302 82.6094 13.3438 82.6094 14.6875C82.6094 15.8021 82.4115 16.8802 82.0156 17.9219C81.6198 18.9531 81.0417 19.8698 80.2812 20.6719C79.5208 21.4635 78.5833 22.099 77.4688 22.5781C76.3542 23.0469 75.0781 23.2812 73.6406 23.2812C72.4219 23.2812 71.2708 23.0781 70.1875 22.6719C69.1042 22.2656 68.1562 21.6875 67.3438 20.9375C66.5312 20.1771 65.8906 19.2604 65.4219 18.1875C64.9531 17.1042 64.7188 15.8906 64.7188 14.5469ZM74.0312 22.1719C74.8229 22.1719 75.5521 22.0156 76.2188 21.7031C76.8854 21.3906 77.4583 20.9427 77.9375 20.3594C78.4271 19.776 78.8021 19.0677 79.0625 18.2344C79.3333 17.3906 79.4688 16.4427 79.4688 15.3906C79.4688 14.1927 79.3385 13.0833 79.0781 12.0625C78.8281 11.0417 78.4427 10.1615 77.9219 9.42188C77.4115 8.67188 76.7708 8.08854 76 7.67188C75.2292 7.24479 74.3281 7.03125 73.2969 7.03125C72.5052 7.03125 71.776 7.18229 71.1094 7.48438C70.4427 7.78646 69.8646 8.22396 69.375 8.79688C68.8958 9.36979 68.5208 10.0729 68.25 10.9062C67.9792 11.7396 67.8438 12.6875 67.8438 13.75C67.8438 14.9375 67.974 16.0469 68.2344 17.0781C68.5052 18.099 68.8958 18.9896 69.4062 19.75C69.9271 20.5 70.5729 21.0938 71.3438 21.5312C72.1146 21.9583 73.0104 22.1719 74.0312 22.1719ZM100.812 23.2188H100.203L87.7812 11V16.5625C87.7812 17.5 87.7865 18.3177 87.7969 19.0156C87.8073 19.7135 87.8229 20.3177 87.8438 20.8281C87.875 21.3281 87.9115 21.75 87.9531 22.0938C88.0052 22.4375 88.0677 22.7188 88.1406 22.9375V23H85.7969V22.9375C85.8698 22.7188 85.9323 22.4375 85.9844 22.0938C86.0365 21.75 86.0781 21.3281 86.1094 20.8281C86.1406 20.3177 86.1615 19.7135 86.1719 19.0156C86.1823 18.3177 86.1875 17.5 86.1875 16.5625V12.625C86.1875 11.6875 86.1823 10.875 86.1719 10.1875C86.1615 9.48958 86.1406 8.89062 86.1094 8.39062C86.0781 7.88021 86.0365 7.45312 85.9844 7.10938C85.9323 6.76562 85.8698 6.48438 85.7969 6.26562V6.20312H86.7656L99.2031 18.4844V12.625C99.2031 11.6875 99.1979 10.875 99.1875 10.1875C99.1771 9.48958 99.1562 8.89062 99.125 8.39062C99.1042 7.88021 99.0729 7.45312 99.0312 7.10938C98.9896 6.76562 98.9323 6.48438 98.8594 6.26562V6.20312H101.188V6.26562C101.115 6.48438 101.052 6.76562 101 7.10938C100.958 7.45312 100.922 7.88021 100.891 8.39062C100.859 8.89062 100.839 9.48958 100.828 10.1875C100.818 10.875 100.812 11.6875 100.812 12.625V23.2188Z" fill="#E3C648"/>
</svg>
