<svg width="22" height="22" viewBox="0 0 22 22" fill="none" xmlns="http://www.w3.org/2000/svg">
<path d="M11 0.333252C8.89038 0.333252 6.82809 0.958841 5.07396 2.13091C3.31984 3.30298 1.95267 4.96888 1.14533 6.91796C0.337996 8.86704 0.12676 11.0118 0.538336 13.0809C0.949912 15.15 1.96581 17.0506 3.45757 18.5424C4.94933 20.0342 6.84995 21.0501 8.91908 21.4616C10.9882 21.8732 13.1329 21.662 15.082 20.8546C17.0311 20.0473 18.697 18.6801 19.8691 16.926C21.0411 15.1719 21.6667 13.1096 21.6667 10.9999C21.6667 8.17094 20.5429 5.45783 18.5425 3.45745C16.5421 1.45706 13.829 0.333252 11 0.333252ZM16.54 13.4866C16.549 14.405 16.1945 15.2897 15.5538 15.9478C14.9132 16.6059 14.0384 16.9841 13.12 16.9999H13V18.2666C13 18.4434 12.9298 18.613 12.8048 18.738C12.6798 18.863 12.5102 18.9333 12.3334 18.9333C12.1566 18.9333 11.987 18.863 11.862 18.738C11.7369 18.613 11.6667 18.4434 11.6667 18.2666V16.9999H10.3334V18.2666C10.3334 18.4434 10.2631 18.613 10.1381 18.738C10.0131 18.863 9.84352 18.9333 9.66671 18.9333C9.4899 18.9333 9.32033 18.863 9.19531 18.738C9.07028 18.613 9.00005 18.4434 9.00005 18.2666V16.9999H7.83338C7.61237 16.9999 7.4004 16.9121 7.24412 16.7558C7.08784 16.5996 7.00005 16.3876 7.00005 16.1666V5.81992C7.00355 5.60122 7.09289 5.39267 7.24879 5.23926C7.40469 5.08586 7.61466 4.99989 7.83338 4.99992H9.00005V3.71325C9.00005 3.53644 9.07028 3.36687 9.19531 3.24185C9.32033 3.11682 9.4899 3.04659 9.66671 3.04659C9.84352 3.04659 10.0131 3.11682 10.1381 3.24185C10.2631 3.36687 10.3334 3.53644 10.3334 3.71325V4.99992H11.6667V3.71325C11.6667 3.53644 11.7369 3.36687 11.862 3.24185C11.987 3.11682 12.1566 3.04659 12.3334 3.04659C12.5102 3.04659 12.6798 3.11682 12.8048 3.24185C12.9298 3.36687 13 3.53644 13 3.71325V4.99992C13.6068 5.02442 14.1935 5.22396 14.6894 5.57449C15.1853 5.92502 15.5692 6.41155 15.7947 6.97538C16.0203 7.53922 16.0778 8.15627 15.9605 8.75209C15.8431 9.34791 15.5559 9.89705 15.1334 10.3333C15.5706 10.6634 15.9252 11.0906 16.1693 11.5811C16.4134 12.0716 16.5403 12.612 16.54 13.1599V13.4866Z" fill="#FAFAFA"/>
</svg>
