<svg width="64" height="64" viewBox="0 0 64 64" fill="none" xmlns="http://www.w3.org/2000/svg">
<rect width="64" height="64" rx="16" fill="#F2E5AB" fill-opacity="0.5"/>
<path d="M27.5 28C28.2956 28 29.0587 27.6839 29.6213 27.1213C30.1839 26.5587 30.5 25.7956 30.5 25C30.5 24.2044 30.1839 23.4413 29.6213 22.8787C29.0587 22.3161 28.2956 22 27.5 22C26.7044 22 25.9413 22.3161 25.3787 22.8787C24.8161 23.4413 24.5 24.2044 24.5 25C24.5 25.7956 24.8161 26.5587 25.3787 27.1213C25.9413 27.6839 26.7044 28 27.5 28ZM22 30.768C22 29.79 22.791 29 23.768 29H28.535C28.1834 29.6078 27.9988 30.2978 28 31C27.9993 31.5676 28.1198 32.1288 28.3532 32.6461C28.5867 33.1635 28.9279 33.625 29.354 34H28.268C27.7044 34 27.1542 34.172 26.6909 34.4929C26.2276 34.8138 25.8732 35.2684 25.675 35.796C24.177 35.43 23.248 34.613 22.701 33.703C22 32.536 22 31.336 22 31.127V30.768ZM36 31C36.0012 30.2978 35.8166 29.6078 35.465 29H40.232C41.21 29 42 29.791 42 30.768V31.128C42 31.335 42 32.536 41.3 33.703C40.752 34.613 39.823 35.43 38.325 35.796C38.1269 35.2683 37.7726 34.8136 37.3092 34.4927C36.8459 34.1718 36.2956 33.9999 35.732 34H34.646C35.0721 33.625 35.4133 33.1635 35.6468 32.6461C35.8802 32.1288 36.0007 31.5676 36 31ZM39.5 25C39.5 25.7956 39.1839 26.5587 38.6213 27.1213C38.0587 27.6839 37.2956 28 36.5 28C35.7044 28 34.9413 27.6839 34.3787 27.1213C33.8161 26.5587 33.5 25.7956 33.5 25C33.5 24.2044 33.8161 23.4413 34.3787 22.8787C34.9413 22.3161 35.7044 22 36.5 22C37.2956 22 38.0587 22.3161 38.6213 22.8787C39.1839 23.4413 39.5 24.2044 39.5 25ZM26.5 36.768C26.5 35.79 27.291 35 28.268 35H35.732C36.709 35 37.5 35.791 37.5 36.768V37.128C37.5 37.335 37.5 38.536 36.8 39.703C36.057 40.937 34.613 42 32 42C29.387 42 27.942 40.937 27.2 39.703C26.5 38.536 26.5 37.336 26.5 37.127V36.768ZM32 34C32.394 34 32.7841 33.9224 33.1481 33.7716C33.512 33.6209 33.8427 33.3999 34.1213 33.1213C34.3999 32.8427 34.6209 32.512 34.7716 32.1481C34.9224 31.7841 35 31.394 35 31C35 30.606 34.9224 30.2159 34.7716 29.8519C34.6209 29.488 34.3999 29.1573 34.1213 28.8787C33.8427 28.6001 33.512 28.3791 33.1481 28.2284C32.7841 28.0776 32.394 28 32 28C31.2044 28 30.4413 28.3161 29.8787 28.8787C29.3161 29.4413 29 30.2044 29 31C29 31.7956 29.3161 32.5587 29.8787 33.1213C30.4413 33.6839 31.2044 34 32 34Z" fill="#FAFAFA"/>
</svg>
