<svg width="88" height="88" viewBox="0 0 88 88" fill="none" xmlns="http://www.w3.org/2000/svg">
<g filter="url(#filter0_d_101_689)">
<rect x="4" width="80" height="80" rx="40" fill="url(#paint0_linear_101_689)"/>
<path d="M35.68 51.416C34.3787 51.416 33.1947 51.1173 32.128 50.52C31.0613 49.912 30.1387 49.0747 29.36 48.008C28.592 46.9413 28 45.7093 27.584 44.312C27.168 42.904 26.96 41.4 26.96 39.8C26.96 38.2 27.168 36.7013 27.584 35.304C28 33.896 28.592 32.6587 29.36 31.592C30.1387 30.5253 31.0613 29.6933 32.128 29.096C33.1947 28.488 34.3787 28.184 35.68 28.184C36.9813 28.184 38.1653 28.488 39.232 29.096C40.2987 29.6933 41.2107 30.5253 41.968 31.592C42.736 32.6587 43.328 33.896 43.744 35.304C44.1707 36.7013 44.384 38.2 44.384 39.8C44.384 41.4 44.1707 42.904 43.744 44.312C43.328 45.7093 42.736 46.9413 41.968 48.008C41.2107 49.0747 40.2987 49.912 39.232 50.52C38.1653 51.1173 36.9813 51.416 35.68 51.416ZM35.68 47.512C36.8213 47.512 37.7653 47.1493 38.512 46.424C39.2587 45.6987 39.8133 44.7493 40.176 43.576C40.5387 42.4027 40.72 41.144 40.72 39.8C40.72 38.3813 40.528 37.0907 40.144 35.928C39.76 34.7547 39.1947 33.8213 38.448 33.128C37.7013 32.4347 36.7787 32.088 35.68 32.088C34.816 32.088 34.064 32.3013 33.424 32.728C32.7947 33.144 32.272 33.7147 31.856 34.44C31.44 35.1653 31.1307 35.992 30.928 36.92C30.7253 37.8373 30.624 38.7973 30.624 39.8C30.624 41.1333 30.8053 42.392 31.168 43.576C31.5413 44.7493 32.1013 45.6987 32.848 46.424C33.6053 47.1493 34.5493 47.512 35.68 47.512ZM53.5198 51.416C52.1651 51.416 50.9438 51.096 49.8558 50.456C48.7678 49.816 47.9038 48.9573 47.2638 47.88C46.6238 46.792 46.3038 45.5867 46.3038 44.264H50.2078C50.2078 44.8613 50.3464 45.4053 50.6238 45.896C50.9118 46.3867 51.3064 46.7813 51.8078 47.08C52.3091 47.368 52.8798 47.512 53.5198 47.512C54.1064 47.512 54.6504 47.368 55.1518 47.08C55.6638 46.7813 56.0744 46.3867 56.3838 45.896C56.6931 45.4053 56.8478 44.8613 56.8478 44.264C56.8478 43.4853 56.6398 42.84 56.2238 42.328C55.8078 41.8053 55.2264 41.416 54.4798 41.16C53.7438 40.904 52.8851 40.776 51.9038 40.776V37.768C53.2264 37.768 54.2718 37.5173 55.0398 37.016C55.8184 36.5147 56.2078 35.7787 56.2078 34.808C56.2078 34.3067 56.0798 33.848 55.8238 33.432C55.5678 33.016 55.2264 32.6853 54.7998 32.44C54.3838 32.184 53.9251 32.056 53.4237 32.056C52.9118 32.056 52.4158 32.184 51.9358 32.44C51.4558 32.6853 51.0611 33.016 50.7518 33.432C50.4531 33.848 50.3038 34.3067 50.3038 34.808H46.3997C46.3997 33.8907 46.5864 33.032 46.9598 32.232C47.3331 31.4213 47.8451 30.712 48.4958 30.104C49.1571 29.496 49.9038 29.0213 50.7358 28.68C51.5784 28.328 52.4584 28.152 53.3758 28.152C54.5811 28.152 55.6958 28.4507 56.7198 29.048C57.7438 29.6453 58.5651 30.4453 59.1838 31.448C59.8024 32.4507 60.1118 33.5707 60.1118 34.808C60.1118 35.672 59.9091 36.52 59.5038 37.352C59.0984 38.184 58.5224 38.7707 57.7758 39.112C58.4264 39.3467 58.9704 39.7413 59.4078 40.296C59.8451 40.84 60.1758 41.464 60.3998 42.168C60.6344 42.8613 60.7518 43.56 60.7518 44.264C60.7518 45.576 60.4211 46.776 59.7598 47.864C59.0984 48.9413 58.2184 49.8053 57.1198 50.456C56.0318 51.096 54.8318 51.416 53.5198 51.416Z" fill="white"/>
</g>
<defs>
<filter id="filter0_d_101_689" x="0" y="0" width="88" height="88" filterUnits="userSpaceOnUse" color-interpolation-filters="sRGB">
<feFlood flood-opacity="0" result="BackgroundImageFix"/>
<feColorMatrix in="SourceAlpha" type="matrix" values="0 0 0 0 0 0 0 0 0 0 0 0 0 0 0 0 0 0 127 0" result="hardAlpha"/>
<feOffset dy="4"/>
<feGaussianBlur stdDeviation="2"/>
<feComposite in2="hardAlpha" operator="out"/>
<feColorMatrix type="matrix" values="0 0 0 0 0.890196 0 0 0 0 0.776471 0 0 0 0 0.282353 0 0 0 1 0"/>
<feBlend mode="normal" in2="BackgroundImageFix" result="effect1_dropShadow_101_689"/>
<feBlend mode="normal" in="SourceGraphic" in2="effect1_dropShadow_101_689" result="shape"/>
</filter>
<linearGradient id="paint0_linear_101_689" x1="-44.8" y1="25.2" x2="111.6" y2="105.6" gradientUnits="userSpaceOnUse">
<stop stop-color="#E3C648"/>
<stop offset="1" stop-color="#972ADB"/>
</linearGradient>
</defs>
</svg>
