<svg width="88" height="88" viewBox="0 0 88 88" fill="none" xmlns="http://www.w3.org/2000/svg">
<g filter="url(#filter0_d_101_693)">
<rect x="4" width="80" height="80" rx="40" fill="url(#paint0_linear_101_693)"/>
<path d="M34.68 51.416C33.3787 51.416 32.1947 51.1173 31.128 50.52C30.0613 49.912 29.1387 49.0747 28.36 48.008C27.592 46.9413 27 45.7093 26.584 44.312C26.168 42.904 25.96 41.4 25.96 39.8C25.96 38.2 26.168 36.7013 26.584 35.304C27 33.896 27.592 32.6587 28.36 31.592C29.1387 30.5253 30.0613 29.6933 31.128 29.096C32.1947 28.488 33.3787 28.184 34.68 28.184C35.9813 28.184 37.1653 28.488 38.232 29.096C39.2987 29.6933 40.2107 30.5253 40.968 31.592C41.736 32.6587 42.328 33.896 42.744 35.304C43.1707 36.7013 43.384 38.2 43.384 39.8C43.384 41.4 43.1707 42.904 42.744 44.312C42.328 45.7093 41.736 46.9413 40.968 48.008C40.2107 49.0747 39.2987 49.912 38.232 50.52C37.1653 51.1173 35.9813 51.416 34.68 51.416ZM34.68 47.512C35.8213 47.512 36.7653 47.1493 37.512 46.424C38.2587 45.6987 38.8133 44.7493 39.176 43.576C39.5387 42.4027 39.72 41.144 39.72 39.8C39.72 38.3813 39.528 37.0907 39.144 35.928C38.76 34.7547 38.1947 33.8213 37.448 33.128C36.7013 32.4347 35.7787 32.088 34.68 32.088C33.816 32.088 33.064 32.3013 32.424 32.728C31.7947 33.144 31.272 33.7147 30.856 34.44C30.44 35.1653 30.1307 35.992 29.928 36.92C29.7253 37.8373 29.624 38.7973 29.624 39.8C29.624 41.1333 29.8053 42.392 30.168 43.576C30.5413 44.7493 31.1013 45.6987 31.848 46.424C32.6053 47.1493 33.5493 47.512 34.68 47.512ZM55.1598 51V45.576H45.6238V41.656L54.2478 28.6H59.0638V41.672H60.9518V45.576H59.0638V51H55.1598ZM50.1518 41.656L55.1598 41.672L55.1438 33.928L50.1518 41.656Z" fill="white"/>
</g>
<defs>
<filter id="filter0_d_101_693" x="0" y="0" width="88" height="88" filterUnits="userSpaceOnUse" color-interpolation-filters="sRGB">
<feFlood flood-opacity="0" result="BackgroundImageFix"/>
<feColorMatrix in="SourceAlpha" type="matrix" values="0 0 0 0 0 0 0 0 0 0 0 0 0 0 0 0 0 0 127 0" result="hardAlpha"/>
<feOffset dy="4"/>
<feGaussianBlur stdDeviation="2"/>
<feComposite in2="hardAlpha" operator="out"/>
<feColorMatrix type="matrix" values="0 0 0 0 0.890196 0 0 0 0 0.776471 0 0 0 0 0.282353 0 0 0 1 0"/>
<feBlend mode="normal" in2="BackgroundImageFix" result="effect1_dropShadow_101_693"/>
<feBlend mode="normal" in="SourceGraphic" in2="effect1_dropShadow_101_693" result="shape"/>
</filter>
<linearGradient id="paint0_linear_101_693" x1="-44.8" y1="25.2" x2="111.6" y2="105.6" gradientUnits="userSpaceOnUse">
<stop stop-color="#E3C648"/>
<stop offset="1" stop-color="#972ADB"/>
</linearGradient>
</defs>
</svg>
