<svg width="88" height="88" viewBox="0 0 88 88" fill="none" xmlns="http://www.w3.org/2000/svg">
<g filter="url(#filter0_d_101_701)">
<rect x="4" width="80" height="80" rx="40" fill="url(#paint0_linear_101_701)"/>
<path d="M35.18 51.416C33.8787 51.416 32.6947 51.1173 31.628 50.52C30.5613 49.912 29.6387 49.0747 28.86 48.008C28.092 46.9413 27.5 45.7093 27.084 44.312C26.668 42.904 26.46 41.4 26.46 39.8C26.46 38.2 26.668 36.7013 27.084 35.304C27.5 33.896 28.092 32.6587 28.86 31.592C29.6387 30.5253 30.5613 29.6933 31.628 29.096C32.6947 28.488 33.8787 28.184 35.18 28.184C36.4813 28.184 37.6653 28.488 38.732 29.096C39.7987 29.6933 40.7107 30.5253 41.468 31.592C42.236 32.6587 42.828 33.896 43.244 35.304C43.6707 36.7013 43.884 38.2 43.884 39.8C43.884 41.4 43.6707 42.904 43.244 44.312C42.828 45.7093 42.236 46.9413 41.468 48.008C40.7107 49.0747 39.7987 49.912 38.732 50.52C37.6653 51.1173 36.4813 51.416 35.18 51.416ZM35.18 47.512C36.3213 47.512 37.2653 47.1493 38.012 46.424C38.7587 45.6987 39.3133 44.7493 39.676 43.576C40.0387 42.4027 40.22 41.144 40.22 39.8C40.22 38.3813 40.028 37.0907 39.644 35.928C39.26 34.7547 38.6947 33.8213 37.948 33.128C37.2013 32.4347 36.2787 32.088 35.18 32.088C34.316 32.088 33.564 32.3013 32.924 32.728C32.2947 33.144 31.772 33.7147 31.356 34.44C30.94 35.1653 30.6307 35.992 30.428 36.92C30.2253 37.8373 30.124 38.7973 30.124 39.8C30.124 41.1333 30.3053 42.392 30.668 43.576C31.0413 44.7493 31.6013 45.6987 32.348 46.424C33.1053 47.1493 34.0493 47.512 35.18 47.512ZM53.5158 51.416C52.0864 51.416 50.7744 51.0587 49.5798 50.344C48.3851 49.6293 47.4304 48.6747 46.7158 47.48C46.0011 46.2853 45.6438 44.9627 45.6438 43.512C45.6438 42.7653 45.7291 42.072 45.8997 41.432C46.0811 40.792 46.3584 40.1467 46.7318 39.496L53.0038 28.6H57.5318L53.3238 35.88C54.1878 35.816 55.0198 35.8907 55.8198 36.104C56.6198 36.3173 57.3611 36.6533 58.0438 37.112C58.7264 37.5707 59.3238 38.1253 59.8358 38.776C60.3478 39.4267 60.7424 40.152 61.0198 40.952C61.3078 41.752 61.4518 42.6053 61.4518 43.512C61.4518 44.6 61.2438 45.6187 60.8278 46.568C60.4224 47.5173 59.8571 48.36 59.1318 49.096C58.4064 49.8213 57.5638 50.392 56.6038 50.808C55.6438 51.2133 54.6144 51.416 53.5158 51.416ZM53.5158 47.512C54.2944 47.512 54.9878 47.3253 55.5958 46.952C56.2038 46.568 56.6784 46.072 57.0198 45.464C57.3718 44.856 57.5478 44.2107 57.5478 43.528C57.5478 42.792 57.3718 42.12 57.0198 41.512C56.6678 40.904 56.1878 40.4187 55.5798 40.056C54.9824 39.6933 54.3051 39.512 53.5478 39.512C52.7691 39.512 52.0758 39.704 51.4678 40.088C50.8704 40.4613 50.4011 40.952 50.0598 41.56C49.7184 42.168 49.5477 42.824 49.5477 43.528C49.5477 44.2853 49.7344 44.9627 50.1078 45.56C50.4811 46.1573 50.9664 46.632 51.5638 46.984C52.1718 47.336 52.8224 47.512 53.5158 47.512Z" fill="white"/>
</g>
<defs>
<filter id="filter0_d_101_701" x="0" y="0" width="88" height="88" filterUnits="userSpaceOnUse" color-interpolation-filters="sRGB">
<feFlood flood-opacity="0" result="BackgroundImageFix"/>
<feColorMatrix in="SourceAlpha" type="matrix" values="0 0 0 0 0 0 0 0 0 0 0 0 0 0 0 0 0 0 127 0" result="hardAlpha"/>
<feOffset dy="4"/>
<feGaussianBlur stdDeviation="2"/>
<feComposite in2="hardAlpha" operator="out"/>
<feColorMatrix type="matrix" values="0 0 0 0 0.890196 0 0 0 0 0.776471 0 0 0 0 0.282353 0 0 0 1 0"/>
<feBlend mode="normal" in2="BackgroundImageFix" result="effect1_dropShadow_101_701"/>
<feBlend mode="normal" in="SourceGraphic" in2="effect1_dropShadow_101_701" result="shape"/>
</filter>
<linearGradient id="paint0_linear_101_701" x1="-44.8" y1="25.2" x2="111.6" y2="105.6" gradientUnits="userSpaceOnUse">
<stop stop-color="#E3C648"/>
<stop offset="1" stop-color="#972ADB"/>
</linearGradient>
</defs>
</svg>
