<svg width="88" height="88" viewBox="0 0 88 88" fill="none" xmlns="http://www.w3.org/2000/svg">
<g filter="url(#filter0_d_101_709)">
<rect x="4" width="80" height="80" rx="40" fill="url(#paint0_linear_101_709)"/>
<path d="M35.18 51.416C33.8787 51.416 32.6947 51.1173 31.628 50.52C30.5613 49.912 29.6387 49.0747 28.86 48.008C28.092 46.9413 27.5 45.7093 27.084 44.312C26.668 42.904 26.46 41.4 26.46 39.8C26.46 38.2 26.668 36.7013 27.084 35.304C27.5 33.896 28.092 32.6587 28.86 31.592C29.6387 30.5253 30.5613 29.6933 31.628 29.096C32.6947 28.488 33.8787 28.184 35.18 28.184C36.4813 28.184 37.6653 28.488 38.732 29.096C39.7987 29.6933 40.7107 30.5253 41.468 31.592C42.236 32.6587 42.828 33.896 43.244 35.304C43.6707 36.7013 43.884 38.2 43.884 39.8C43.884 41.4 43.6707 42.904 43.244 44.312C42.828 45.7093 42.236 46.9413 41.468 48.008C40.7107 49.0747 39.7987 49.912 38.732 50.52C37.6653 51.1173 36.4813 51.416 35.18 51.416ZM35.18 47.512C36.3213 47.512 37.2653 47.1493 38.012 46.424C38.7587 45.6987 39.3133 44.7493 39.676 43.576C40.0387 42.4027 40.22 41.144 40.22 39.8C40.22 38.3813 40.028 37.0907 39.644 35.928C39.26 34.7547 38.6947 33.8213 37.948 33.128C37.2013 32.4347 36.2787 32.088 35.18 32.088C34.316 32.088 33.564 32.3013 32.924 32.728C32.2947 33.144 31.772 33.7147 31.356 34.44C30.94 35.1653 30.6307 35.992 30.428 36.92C30.2253 37.8373 30.124 38.7973 30.124 39.8C30.124 41.1333 30.3053 42.392 30.668 43.576C31.0413 44.7493 31.6013 45.6987 32.348 46.424C33.1053 47.1493 34.0493 47.512 35.18 47.512ZM53.5478 51.416C52.1718 51.416 50.9238 51.1013 49.8038 50.472C48.6838 49.8427 47.7878 49 47.1158 47.944C46.4544 46.8773 46.1238 45.6933 46.1238 44.392C46.1238 43.368 46.3531 42.408 46.8118 41.512C47.2811 40.6053 47.9104 39.8427 48.6998 39.224C48.0811 38.6587 47.5744 37.992 47.1798 37.224C46.7958 36.4453 46.6038 35.6133 46.6038 34.728C46.6038 33.5227 46.9184 32.424 47.5478 31.432C48.1771 30.44 49.0144 29.6507 50.0598 29.064C51.1158 28.4773 52.2784 28.184 53.5478 28.184C54.8278 28.184 55.9904 28.4773 57.0358 29.064C58.0811 29.6507 58.9184 30.44 59.5478 31.432C60.1771 32.424 60.4918 33.5227 60.4918 34.728C60.4918 35.6133 60.2998 36.4453 59.9158 37.224C59.5424 37.992 59.0358 38.6587 58.3958 39.224C59.2064 39.8427 59.8411 40.6053 60.2998 41.512C60.7691 42.408 61.0037 43.368 61.0037 44.392C61.0037 45.6827 60.6678 46.8613 59.9958 47.928C59.3344 48.984 58.4384 49.832 57.3078 50.472C56.1771 51.1013 54.9238 51.416 53.5478 51.416ZM53.5478 47.512C54.1664 47.512 54.7264 47.3733 55.2278 47.096C55.7291 46.808 56.1291 46.4293 56.4278 45.96C56.7264 45.4907 56.8758 44.968 56.8758 44.392C56.8758 43.816 56.7264 43.2933 56.4278 42.824C56.1291 42.3547 55.7291 41.9813 55.2278 41.704C54.7264 41.416 54.1664 41.272 53.5478 41.272C52.9398 41.272 52.3851 41.416 51.8838 41.704C51.3824 41.9813 50.9771 42.3547 50.6678 42.824C50.3691 43.2933 50.2198 43.816 50.2198 44.392C50.2198 44.968 50.3691 45.4907 50.6678 45.96C50.9771 46.4293 51.3824 46.808 51.8838 47.096C52.3851 47.3733 52.9398 47.512 53.5478 47.512ZM53.5478 37.368C54.0704 37.368 54.5451 37.2507 54.9718 37.016C55.3984 36.7707 55.7344 36.4507 55.9798 36.056C56.2358 35.6613 56.3638 35.2187 56.3638 34.728C56.3638 34.2373 56.2358 33.7947 55.9798 33.4C55.7344 33.0053 55.3984 32.6907 54.9718 32.456C54.5451 32.2107 54.0704 32.088 53.5478 32.088C53.0358 32.088 52.5664 32.2107 52.1398 32.456C51.7131 32.6907 51.3718 33.0053 51.1158 33.4C50.8598 33.7947 50.7318 34.2373 50.7318 34.728C50.7318 35.2187 50.8598 35.6613 51.1158 36.056C51.3718 36.4507 51.7131 36.7707 52.1398 37.016C52.5664 37.2507 53.0358 37.368 53.5478 37.368Z" fill="white"/>
</g>
<defs>
<filter id="filter0_d_101_709" x="0" y="0" width="88" height="88" filterUnits="userSpaceOnUse" color-interpolation-filters="sRGB">
<feFlood flood-opacity="0" result="BackgroundImageFix"/>
<feColorMatrix in="SourceAlpha" type="matrix" values="0 0 0 0 0 0 0 0 0 0 0 0 0 0 0 0 0 0 127 0" result="hardAlpha"/>
<feOffset dy="4"/>
<feGaussianBlur stdDeviation="2"/>
<feComposite in2="hardAlpha" operator="out"/>
<feColorMatrix type="matrix" values="0 0 0 0 0.890196 0 0 0 0 0.776471 0 0 0 0 0.282353 0 0 0 1 0"/>
<feBlend mode="normal" in2="BackgroundImageFix" result="effect1_dropShadow_101_709"/>
<feBlend mode="normal" in="SourceGraphic" in2="effect1_dropShadow_101_709" result="shape"/>
</filter>
<linearGradient id="paint0_linear_101_709" x1="-44.8" y1="25.2" x2="111.6" y2="105.6" gradientUnits="userSpaceOnUse">
<stop stop-color="#E3C648"/>
<stop offset="1" stop-color="#972ADB"/>
</linearGradient>
</defs>
</svg>
