<svg width="88" height="88" viewBox="0 0 88 88" fill="none" xmlns="http://www.w3.org/2000/svg">
<g filter="url(#filter0_d_101_713)">
<rect x="4" width="80" height="80" rx="40" fill="url(#paint0_linear_101_713)"/>
<path d="M35.18 51.416C33.8787 51.416 32.6947 51.1173 31.628 50.52C30.5613 49.912 29.6387 49.0747 28.86 48.008C28.092 46.9413 27.5 45.7093 27.084 44.312C26.668 42.904 26.46 41.4 26.46 39.8C26.46 38.2 26.668 36.7013 27.084 35.304C27.5 33.896 28.092 32.6587 28.86 31.592C29.6387 30.5253 30.5613 29.6933 31.628 29.096C32.6947 28.488 33.8787 28.184 35.18 28.184C36.4813 28.184 37.6653 28.488 38.732 29.096C39.7987 29.6933 40.7107 30.5253 41.468 31.592C42.236 32.6587 42.828 33.896 43.244 35.304C43.6707 36.7013 43.884 38.2 43.884 39.8C43.884 41.4 43.6707 42.904 43.244 44.312C42.828 45.7093 42.236 46.9413 41.468 48.008C40.7107 49.0747 39.7987 49.912 38.732 50.52C37.6653 51.1173 36.4813 51.416 35.18 51.416ZM35.18 47.512C36.3213 47.512 37.2653 47.1493 38.012 46.424C38.7587 45.6987 39.3133 44.7493 39.676 43.576C40.0387 42.4027 40.22 41.144 40.22 39.8C40.22 38.3813 40.028 37.0907 39.644 35.928C39.26 34.7547 38.6947 33.8213 37.948 33.128C37.2013 32.4347 36.2787 32.088 35.18 32.088C34.316 32.088 33.564 32.3013 32.924 32.728C32.2947 33.144 31.772 33.7147 31.356 34.44C30.94 35.1653 30.6307 35.992 30.428 36.92C30.2253 37.8373 30.124 38.7973 30.124 39.8C30.124 41.1333 30.3053 42.392 30.668 43.576C31.0413 44.7493 31.6013 45.6987 32.348 46.424C33.1053 47.1493 34.0493 47.512 35.18 47.512ZM49.4838 51L53.7878 43.56C52.7318 43.624 51.7238 43.48 50.7638 43.128C49.8144 42.776 48.9664 42.2533 48.2198 41.56C47.4731 40.8667 46.8811 40.0453 46.4438 39.096C46.0171 38.1467 45.8038 37.1173 45.8038 36.008C45.8038 34.9307 46.0064 33.9227 46.4118 32.984C46.8171 32.0347 47.3771 31.2027 48.0918 30.488C48.8171 29.7627 49.6491 29.1973 50.5878 28.792C51.5371 28.3867 52.5558 28.184 53.6438 28.184C55.0624 28.184 56.3584 28.536 57.5318 29.24C58.7158 29.944 59.6598 30.888 60.3638 32.072C61.0784 33.256 61.4358 34.568 61.4358 36.008C61.4358 36.7227 61.3451 37.4 61.1638 38.04C60.9931 38.6693 60.7211 39.3093 60.3478 39.96L53.9958 51H49.4838ZM53.6118 39.928C54.3798 39.928 55.0571 39.7413 55.6438 39.368C56.2411 38.9947 56.7051 38.5093 57.0358 37.912C57.3664 37.3147 57.5318 36.6747 57.5318 35.992C57.5318 35.2453 57.3504 34.5787 56.9878 33.992C56.6251 33.3947 56.1451 32.9307 55.5478 32.6C54.9504 32.2587 54.3158 32.088 53.6438 32.088C52.8758 32.088 52.1931 32.2747 51.5958 32.648C51.0091 33.0107 50.5451 33.4907 50.2038 34.088C49.8624 34.6853 49.6918 35.32 49.6918 35.992C49.6918 36.7067 49.8624 37.3627 50.2038 37.96C50.5558 38.5573 51.0251 39.0373 51.6118 39.4C52.2091 39.752 52.8758 39.928 53.6118 39.928Z" fill="white"/>
</g>
<defs>
<filter id="filter0_d_101_713" x="0" y="0" width="88" height="88" filterUnits="userSpaceOnUse" color-interpolation-filters="sRGB">
<feFlood flood-opacity="0" result="BackgroundImageFix"/>
<feColorMatrix in="SourceAlpha" type="matrix" values="0 0 0 0 0 0 0 0 0 0 0 0 0 0 0 0 0 0 127 0" result="hardAlpha"/>
<feOffset dy="4"/>
<feGaussianBlur stdDeviation="2"/>
<feComposite in2="hardAlpha" operator="out"/>
<feColorMatrix type="matrix" values="0 0 0 0 0.890196 0 0 0 0 0.776471 0 0 0 0 0.282353 0 0 0 1 0"/>
<feBlend mode="normal" in2="BackgroundImageFix" result="effect1_dropShadow_101_713"/>
<feBlend mode="normal" in="SourceGraphic" in2="effect1_dropShadow_101_713" result="shape"/>
</filter>
<linearGradient id="paint0_linear_101_713" x1="-44.8" y1="25.2" x2="111.6" y2="105.6" gradientUnits="userSpaceOnUse">
<stop stop-color="#E3C648"/>
<stop offset="1" stop-color="#972ADB"/>
</linearGradient>
</defs>
</svg>
