<svg width="24" height="25" viewBox="0 0 24 25" fill="none" xmlns="http://www.w3.org/2000/svg">
<path d="M18.93 20.5C17.2447 20.5 15.5167 20.078 13.746 19.234C11.9753 18.3893 10.3273 17.2043 8.802 15.679C7.28867 14.153 6.11 12.508 5.266 10.744C4.422 8.98 4 7.25533 4 5.57C4 5.27 4.1 5.01667 4.3 4.81C4.5 4.60333 4.75 4.5 5.05 4.5H7.523C7.795 4.5 8.03233 4.58567 8.235 4.757C8.43767 4.92833 8.57467 5.14767 8.646 5.415L9.142 7.8C9.18867 8.08 9.18033 8.32433 9.117 8.533C9.05433 8.74167 8.94367 8.91267 8.785 9.046L6.59 11.092C7.00067 11.8373 7.45433 12.5293 7.951 13.168C8.44767 13.8073 8.97767 14.413 9.541 14.985C10.121 15.565 10.7457 16.105 11.415 16.605C12.0843 17.1043 12.819 17.5757 13.619 18.019L15.758 15.842C15.9207 15.6667 16.1037 15.551 16.307 15.495C16.5103 15.4397 16.735 15.4287 16.981 15.462L19.085 15.892C19.3563 15.9587 19.5767 16.0953 19.746 16.302C19.9153 16.5093 20 16.747 20 17.015V19.45C20 19.75 19.8967 20 19.69 20.2C19.4833 20.4 19.23 20.5 18.93 20.5Z" fill="#171717"/>
</svg>
