<svg width="64" height="64" viewBox="0 0 64 64" fill="none" xmlns="http://www.w3.org/2000/svg">
<rect width="64" height="64" rx="16" fill="#F2E5AB" fill-opacity="0.5"/>
<g clip-path="url(#clip0_129_40)">
<path d="M34.12 32.3132H29.6667V36.3132H34.12C34.3564 36.3072 34.5893 36.2546 34.8054 36.1585C35.0214 36.0624 35.2165 35.9247 35.3793 35.7532C35.5421 35.5817 35.6696 35.3798 35.7543 35.159C35.8391 34.9383 35.8795 34.703 35.8733 34.4666V34.1466C35.8805 33.6719 35.7006 33.2135 35.3725 32.8704C35.0444 32.5273 34.5945 32.3272 34.12 32.3132Z" fill="#FAFAFA"/>
<path d="M35.3333 29.1667C35.3342 28.9706 35.2964 28.7763 35.2222 28.5948C35.148 28.4132 35.0387 28.2481 34.9007 28.1088C34.7626 27.9696 34.5985 27.8588 34.4176 27.783C34.2368 27.7071 34.0428 27.6676 33.8467 27.6667H29.6667V30.6667H33.8667C34.0616 30.665 34.2542 30.6248 34.4336 30.5484C34.6129 30.472 34.7754 30.3609 34.9117 30.2215C35.048 30.0821 35.1554 29.9172 35.2277 29.7362C35.3001 29.5552 35.336 29.3617 35.3333 29.1667Z" fill="#FAFAFA"/>
<path d="M32 21.3333C29.8903 21.3333 27.828 21.9588 26.0739 23.1309C24.3198 24.303 22.9526 25.9689 22.1453 27.918C21.3379 29.867 21.1267 32.0118 21.5383 34.0809C21.9499 36.15 22.9658 38.0506 24.4575 39.5424C25.9493 41.0342 27.8499 42.0501 29.919 42.4616C31.9882 42.8732 34.1329 42.662 36.0819 41.8546C38.031 41.0473 39.6969 39.6801 40.869 37.926C42.0411 36.1719 42.6667 34.1096 42.6667 31.9999C42.6667 29.1709 41.5428 26.4578 39.5425 24.4574C37.5421 22.4571 34.829 21.3333 32 21.3333ZM37.54 34.4866C37.5489 35.405 37.1944 36.2897 36.5538 36.9478C35.9131 37.6059 35.0383 37.9841 34.12 37.9999H34V39.2666C34 39.4434 33.9297 39.613 33.8047 39.738C33.6797 39.863 33.5101 39.9333 33.3333 39.9333C33.1565 39.9333 32.9869 39.863 32.8619 39.738C32.7369 39.613 32.6667 39.4434 32.6667 39.2666V37.9999H31.3333V39.2666C31.3333 39.4434 31.2631 39.613 31.1381 39.738C31.013 39.863 30.8435 39.9333 30.6667 39.9333C30.4898 39.9333 30.3203 39.863 30.1952 39.738C30.0702 39.613 30 39.4434 30 39.2666V37.9999H28.8333C28.6123 37.9999 28.4003 37.9121 28.2441 37.7558C28.0878 37.5996 28 37.3876 28 37.1666V26.8199C28.0035 26.6012 28.0928 26.3927 28.2487 26.2393C28.4046 26.0859 28.6146 25.9999 28.8333 25.9999H30V24.7133C30 24.5364 30.0702 24.3669 30.1952 24.2418C30.3203 24.1168 30.4898 24.0466 30.6667 24.0466C30.8435 24.0466 31.013 24.1168 31.1381 24.2418C31.2631 24.3669 31.3333 24.5364 31.3333 24.7133V25.9999H32.6667V24.7133C32.6667 24.5364 32.7369 24.3669 32.8619 24.2418C32.9869 24.1168 33.1565 24.0466 33.3333 24.0466C33.5101 24.0466 33.6797 24.1168 33.8047 24.2418C33.9297 24.3669 34 24.5364 34 24.7133V25.9999C34.6068 26.0244 35.1935 26.224 35.6894 26.5745C36.1853 26.925 36.5691 27.4115 36.7947 27.9754C37.0202 28.5392 37.0778 29.1563 36.9604 29.7521C36.8431 30.3479 36.5558 30.897 36.1333 31.3333C36.5705 31.6634 36.9251 32.0906 37.1692 32.5811C37.4133 33.0716 37.5402 33.612 37.54 34.1599V34.4866Z" fill="#FAFAFA"/>
</g>
<defs>
<clipPath id="clip0_129_40">
<rect width="24" height="24" fill="white" transform="translate(20 20)"/>
</clipPath>
</defs>
</svg>
