<svg width="64" height="64" viewBox="0 0 64 64" fill="none" xmlns="http://www.w3.org/2000/svg">
<rect width="64" height="64" rx="16" fill="#F2E5AB" fill-opacity="0.5"/>
<path d="M40 37C40.5304 37 41.0391 36.7893 41.4142 36.4142C41.7893 36.0391 42 35.5304 42 35V24C42 23.4696 41.7893 22.9609 41.4142 22.5858C41.0391 22.2107 40.5304 22 40 22H29.46C29.81 22.61 30 23.3 30 24H40V35H31V37M35 27V29H29V42H27V36H25V42H23V34H21.5V29C21.5 28.4696 21.7107 27.9609 22.0858 27.5858C22.4609 27.2107 22.9696 27 23.5 27H35ZM28 24C28 24.5304 27.7893 25.0391 27.4142 25.4142C27.0391 25.7893 26.5304 26 26 26C25.4696 26 24.9609 25.7893 24.5858 25.4142C24.2107 25.0391 24 24.5304 24 24C24 23.4696 24.2107 22.9609 24.5858 22.5858C24.9609 22.2107 25.4696 22 26 22C26.5304 22 27.0391 22.2107 27.4142 22.5858C27.7893 22.9609 28 23.4696 28 24Z" fill="#FAFAFA"/>
</svg>
