<svg width="101" height="24" viewBox="0 0 101 24" fill="none" xmlns="http://www.w3.org/2000/svg">
<path d="M3.53125 13.0781C4.55208 13.2656 5.48438 13.2865 6.32812 13.1406C7.18229 12.9844 7.91146 12.6615 8.51562 12.1719C9.13021 11.6719 9.60417 11 9.9375 10.1562C10.2812 9.3125 10.4531 8.28125 10.4531 7.0625C10.4531 6.21875 10.3646 5.45312 10.1875 4.76562C10.0104 4.06771 9.74479 3.47917 9.39062 3C9.04688 2.51042 8.60938 2.13542 8.07812 1.875C7.54688 1.60417 6.92708 1.46875 6.21875 1.46875C5.77083 1.46875 5.38021 1.48958 5.04688 1.53125C4.71354 1.5625 4.43229 1.59896 4.20312 1.64062C3.93229 1.69271 3.70833 1.75 3.53125 1.8125V13.0781ZM0.234375 0.59375C0.442708 0.614583 0.661458 0.635417 0.890625 0.65625C1.08854 0.677083 1.30729 0.692708 1.54688 0.703125C1.79688 0.703125 2.05208 0.703125 2.3125 0.703125C2.71875 0.703125 3.26562 0.65625 3.95312 0.5625C4.65104 0.458333 5.53646 0.40625 6.60938 0.40625C7.60938 0.40625 8.53125 0.552083 9.375 0.84375C10.2292 1.13542 10.9688 1.5625 11.5938 2.125C12.2188 2.6875 12.7031 3.375 13.0469 4.1875C13.401 4.98958 13.5781 5.90625 13.5781 6.9375C13.5781 8.32292 13.3021 9.52083 12.75 10.5312C12.1979 11.5417 11.4583 12.3594 10.5312 12.9844C9.60417 13.6094 8.53646 14.0365 7.32812 14.2656C6.11979 14.4844 4.85417 14.4948 3.53125 14.2969V16.8906C3.53125 17.776 3.54167 18.5521 3.5625 19.2188C3.59375 19.875 3.625 20.4427 3.65625 20.9219C3.69792 21.401 3.74479 21.8021 3.79688 22.125C3.85938 22.4479 3.92188 22.7188 3.98438 22.9375V23H0.234375V22.9375C0.296875 22.7188 0.354167 22.4479 0.40625 22.125C0.46875 21.8021 0.520833 21.401 0.5625 20.9219C0.604167 20.4427 0.635417 19.875 0.65625 19.2188C0.677083 18.5521 0.6875 17.776 0.6875 16.8906V6.71875C0.6875 5.83333 0.677083 5.0625 0.65625 4.40625C0.635417 3.73958 0.604167 3.16667 0.5625 2.6875C0.520833 2.19792 0.46875 1.79167 0.40625 1.46875C0.354167 1.14583 0.296875 0.875 0.234375 0.65625V0.59375ZM25.4062 17.7188C25.125 17.7188 24.7708 17.7188 24.3438 17.7188C23.9271 17.7188 23.4688 17.7188 22.9688 17.7188C22.4688 17.7188 21.9531 17.7188 21.4219 17.7188C20.8906 17.7188 20.3854 17.724 19.9062 17.7344C19.4271 17.7344 18.9896 17.7396 18.5938 17.75C18.1979 17.75 17.8906 17.75 17.6719 17.75L17.0938 18.9688C16.8438 19.4688 16.6302 19.9062 16.4531 20.2812C16.276 20.6458 16.1302 20.9688 16.0156 21.25C15.901 21.5312 15.8177 21.776 15.7656 21.9844C15.7135 22.1823 15.6875 22.3698 15.6875 22.5469C15.6875 22.6615 15.6927 22.75 15.7031 22.8125C15.7135 22.8646 15.7292 22.9062 15.75 22.9375V23H13V22.9375C13.0729 22.8646 13.1875 22.7083 13.3438 22.4688C13.5 22.2188 13.6771 21.9167 13.875 21.5625C14.0833 21.2083 14.3021 20.8073 14.5312 20.3594C14.7708 19.9115 15.0052 19.4479 15.2344 18.9688L21.6094 5.8125H22.7812L29.0312 18.9688C29.2708 19.4688 29.5104 19.9479 29.75 20.4062C30 20.8646 30.2292 21.276 30.4375 21.6406C30.6458 21.9948 30.8281 22.2917 30.9844 22.5312C31.1406 22.7604 31.2448 22.8958 31.2969 22.9375V23H27.2969C27.3177 22.9167 27.3281 22.8438 27.3281 22.7812C27.3281 22.7083 27.3281 22.6302 27.3281 22.5469C27.3281 22.3177 27.276 22.0417 27.1719 21.7188C27.0781 21.3958 26.9583 21.0677 26.8125 20.7344C26.6771 20.3906 26.5312 20.0625 26.375 19.75C26.2292 19.4375 26.1094 19.1771 26.0156 18.9688L25.4062 17.7188ZM18.2812 16.5H19.2344C19.6719 16.5 20.1354 16.5 20.625 16.5C21.125 16.4896 21.625 16.4844 22.125 16.4844C22.625 16.4844 23.1094 16.4844 23.5781 16.4844C24.0469 16.474 24.4688 16.4688 24.8438 16.4688L21.6094 9.5625L18.2812 16.5ZM40.8125 9.46875H40.5C40.4375 9.29167 40.3333 9.06771 40.1875 8.79688C40.0521 8.52604 39.8646 8.26042 39.625 8C39.3958 7.73958 39.1094 7.52083 38.7656 7.34375C38.4219 7.15625 38.0104 7.0625 37.5312 7.0625C37.1667 7.0625 36.8385 7.125 36.5469 7.25C36.2656 7.36458 36.026 7.52604 35.8281 7.73438C35.6302 7.94271 35.4792 8.19271 35.375 8.48438C35.2708 8.76562 35.2188 9.07292 35.2188 9.40625C35.2188 9.94792 35.3802 10.4635 35.7031 10.9531C36.0365 11.4427 36.4479 11.9323 36.9375 12.4219C37.4271 12.901 37.9583 13.3854 38.5312 13.875C39.1042 14.3646 39.6354 14.875 40.125 15.4062C40.6146 15.9375 41.0208 16.5 41.3438 17.0938C41.6771 17.6875 41.8438 18.3229 41.8438 19C41.8438 19.5 41.75 20.0156 41.5625 20.5469C41.3854 21.0781 41.0938 21.5573 40.6875 21.9844C40.2812 22.4115 39.7604 22.7604 39.125 23.0312C38.4896 23.3125 37.7188 23.4531 36.8125 23.4531C36.3125 23.4531 35.8333 23.4115 35.375 23.3281C34.9271 23.2448 34.5104 23.1406 34.125 23.0156C33.75 22.901 33.4115 22.776 33.1094 22.6406C32.8177 22.4948 32.5729 22.3594 32.375 22.2344L32.6562 19.2812H32.9844C33.0885 19.6458 33.2396 20.0104 33.4375 20.375C33.6458 20.7396 33.8958 21.0729 34.1875 21.375C34.4896 21.6667 34.8385 21.9062 35.2344 22.0938C35.6406 22.2708 36.1042 22.3594 36.625 22.3594C36.9896 22.3594 37.3333 22.3021 37.6562 22.1875C37.9792 22.0625 38.2552 21.8906 38.4844 21.6719C38.724 21.4531 38.9115 21.1875 39.0469 20.875C39.1823 20.5521 39.25 20.1927 39.25 19.7969C39.25 19.3281 39.1562 18.8958 38.9688 18.5C38.7812 18.0938 38.5312 17.7083 38.2188 17.3438C37.9062 16.9688 37.5521 16.6094 37.1562 16.2656C36.7708 15.9219 36.3698 15.5729 35.9531 15.2188C35.5365 14.8646 35.1302 14.5052 34.7344 14.1406C34.349 13.7656 34 13.3646 33.6875 12.9375C33.375 12.5104 33.125 12.0573 32.9375 11.5781C32.75 11.0885 32.6562 10.5521 32.6562 9.96875C32.6562 9.35417 32.7865 8.80208 33.0469 8.3125C33.3073 7.82292 33.651 7.41146 34.0781 7.07812C34.5052 6.73438 34.9948 6.47396 35.5469 6.29688C36.099 6.10938 36.6719 6.01562 37.2656 6.01562C37.7031 6.01562 38.1094 6.04688 38.4844 6.10938C38.8698 6.17188 39.2135 6.25 39.5156 6.34375C39.8281 6.42708 40.099 6.51562 40.3281 6.60938C40.5573 6.69271 40.7448 6.76042 40.8906 6.8125L40.8125 9.46875ZM52.7188 9.46875H52.4062C52.3438 9.29167 52.2396 9.06771 52.0938 8.79688C51.9583 8.52604 51.7708 8.26042 51.5312 8C51.3021 7.73958 51.0156 7.52083 50.6719 7.34375C50.3281 7.15625 49.9167 7.0625 49.4375 7.0625C49.0729 7.0625 48.7448 7.125 48.4531 7.25C48.1719 7.36458 47.9323 7.52604 47.7344 7.73438C47.5365 7.94271 47.3854 8.19271 47.2812 8.48438C47.1771 8.76562 47.125 9.07292 47.125 9.40625C47.125 9.94792 47.2865 10.4635 47.6094 10.9531C47.9427 11.4427 48.3542 11.9323 48.8438 12.4219C49.3333 12.901 49.8646 13.3854 50.4375 13.875C51.0104 14.3646 51.5417 14.875 52.0312 15.4062C52.5208 15.9375 52.9271 16.5 53.25 17.0938C53.5833 17.6875 53.75 18.3229 53.75 19C53.75 19.5 53.6562 20.0156 53.4688 20.5469C53.2917 21.0781 53 21.5573 52.5938 21.9844C52.1875 22.4115 51.6667 22.7604 51.0312 23.0312C50.3958 23.3125 49.625 23.4531 48.7188 23.4531C48.2188 23.4531 47.7396 23.4115 47.2812 23.3281C46.8333 23.2448 46.4167 23.1406 46.0312 23.0156C45.6562 22.901 45.3177 22.776 45.0156 22.6406C44.724 22.4948 44.4792 22.3594 44.2812 22.2344L44.5625 19.2812H44.8906C44.9948 19.6458 45.1458 20.0104 45.3438 20.375C45.5521 20.7396 45.8021 21.0729 46.0938 21.375C46.3958 21.6667 46.7448 21.9062 47.1406 22.0938C47.5469 22.2708 48.0104 22.3594 48.5312 22.3594C48.8958 22.3594 49.2396 22.3021 49.5625 22.1875C49.8854 22.0625 50.1615 21.8906 50.3906 21.6719C50.6302 21.4531 50.8177 21.1875 50.9531 20.875C51.0885 20.5521 51.1562 20.1927 51.1562 19.7969C51.1562 19.3281 51.0625 18.8958 50.875 18.5C50.6875 18.0938 50.4375 17.7083 50.125 17.3438C49.8125 16.9688 49.4583 16.6094 49.0625 16.2656C48.6771 15.9219 48.276 15.5729 47.8594 15.2188C47.4427 14.8646 47.0365 14.5052 46.6406 14.1406C46.2552 13.7656 45.9062 13.3646 45.5938 12.9375C45.2812 12.5104 45.0312 12.0573 44.8438 11.5781C44.6562 11.0885 44.5625 10.5521 44.5625 9.96875C44.5625 9.35417 44.6927 8.80208 44.9531 8.3125C45.2135 7.82292 45.5573 7.41146 45.9844 7.07812C46.4115 6.73438 46.901 6.47396 47.4531 6.29688C48.0052 6.10938 48.5781 6.01562 49.1719 6.01562C49.6094 6.01562 50.0156 6.04688 50.3906 6.10938C50.776 6.17188 51.1198 6.25 51.4219 6.34375C51.7344 6.42708 52.0052 6.51562 52.2344 6.60938C52.4635 6.69271 52.651 6.76042 52.7969 6.8125L52.7188 9.46875ZM57.5938 12.625C57.5938 11.6875 57.5833 10.875 57.5625 10.1875C57.5417 9.48958 57.5104 8.89062 57.4688 8.39062C57.4375 7.88021 57.3906 7.45312 57.3281 7.10938C57.276 6.76562 57.2135 6.48438 57.1406 6.26562V6.20312H60.7656V6.26562C60.6927 6.48438 60.625 6.76562 60.5625 7.10938C60.5104 7.45312 60.4635 7.88021 60.4219 8.39062C60.3906 8.89062 60.3646 9.48958 60.3438 10.1875C60.3229 10.875 60.3125 11.6875 60.3125 12.625V16.5625C60.3125 17.5 60.3229 18.3177 60.3438 19.0156C60.3646 19.7135 60.3906 20.3177 60.4219 20.8281C60.4635 21.3281 60.5104 21.75 60.5625 22.0938C60.625 22.4375 60.6927 22.7188 60.7656 22.9375V23H57.1406V22.9375C57.2135 22.7188 57.276 22.4375 57.3281 22.0938C57.3906 21.75 57.4375 21.3281 57.4688 20.8281C57.5104 20.3177 57.5417 19.7135 57.5625 19.0156C57.5833 18.3177 57.5938 17.5 57.5938 16.5625V12.625ZM64.2188 14.5469C64.2188 13.3177 64.4479 12.1771 64.9062 11.125C65.375 10.0729 66.0104 9.16146 66.8125 8.39062C67.6146 7.60938 68.5625 7 69.6562 6.5625C70.75 6.125 71.9219 5.90625 73.1719 5.90625C74.401 5.90625 75.5573 6.11458 76.6406 6.53125C77.7344 6.9375 78.6823 7.52083 79.4844 8.28125C80.2969 9.04167 80.9375 9.96354 81.4062 11.0469C81.875 12.1302 82.1094 13.3438 82.1094 14.6875C82.1094 15.8021 81.9115 16.8802 81.5156 17.9219C81.1198 18.9531 80.5417 19.8698 79.7812 20.6719C79.0208 21.4635 78.0833 22.099 76.9688 22.5781C75.8542 23.0469 74.5781 23.2812 73.1406 23.2812C71.9219 23.2812 70.7708 23.0781 69.6875 22.6719C68.6042 22.2656 67.6562 21.6875 66.8438 20.9375C66.0312 20.1771 65.3906 19.2604 64.9219 18.1875C64.4531 17.1042 64.2188 15.8906 64.2188 14.5469ZM73.5312 22.1719C74.3229 22.1719 75.0521 22.0156 75.7188 21.7031C76.3854 21.3906 76.9583 20.9427 77.4375 20.3594C77.9271 19.776 78.3021 19.0677 78.5625 18.2344C78.8333 17.3906 78.9688 16.4427 78.9688 15.3906C78.9688 14.1927 78.8385 13.0833 78.5781 12.0625C78.3281 11.0417 77.9427 10.1615 77.4219 9.42188C76.9115 8.67188 76.2708 8.08854 75.5 7.67188C74.7292 7.24479 73.8281 7.03125 72.7969 7.03125C72.0052 7.03125 71.276 7.18229 70.6094 7.48438C69.9427 7.78646 69.3646 8.22396 68.875 8.79688C68.3958 9.36979 68.0208 10.0729 67.75 10.9062C67.4792 11.7396 67.3438 12.6875 67.3438 13.75C67.3438 14.9375 67.474 16.0469 67.7344 17.0781C68.0052 18.099 68.3958 18.9896 68.9062 19.75C69.4271 20.5 70.0729 21.0938 70.8438 21.5312C71.6146 21.9583 72.5104 22.1719 73.5312 22.1719ZM100.312 23.2188H99.7031L87.2812 11V16.5625C87.2812 17.5 87.2865 18.3177 87.2969 19.0156C87.3073 19.7135 87.3229 20.3177 87.3438 20.8281C87.375 21.3281 87.4115 21.75 87.4531 22.0938C87.5052 22.4375 87.5677 22.7188 87.6406 22.9375V23H85.2969V22.9375C85.3698 22.7188 85.4323 22.4375 85.4844 22.0938C85.5365 21.75 85.5781 21.3281 85.6094 20.8281C85.6406 20.3177 85.6615 19.7135 85.6719 19.0156C85.6823 18.3177 85.6875 17.5 85.6875 16.5625V12.625C85.6875 11.6875 85.6823 10.875 85.6719 10.1875C85.6615 9.48958 85.6406 8.89062 85.6094 8.39062C85.5781 7.88021 85.5365 7.45312 85.4844 7.10938C85.4323 6.76562 85.3698 6.48438 85.2969 6.26562V6.20312H86.2656L98.7031 18.4844V12.625C98.7031 11.6875 98.6979 10.875 98.6875 10.1875C98.6771 9.48958 98.6562 8.89062 98.625 8.39062C98.6042 7.88021 98.5729 7.45312 98.5312 7.10938C98.4896 6.76562 98.4323 6.48438 98.3594 6.26562V6.20312H100.688V6.26562C100.615 6.48438 100.552 6.76562 100.5 7.10938C100.458 7.45312 100.422 7.88021 100.391 8.39062C100.359 8.89062 100.339 9.48958 100.328 10.1875C100.318 10.875 100.312 11.6875 100.312 12.625V23.2188Z" fill="#E3C648"/>
</svg>
